<?xml version="1.0"?>
<svg xmlns="http://www.w3.org/2000/svg" id="Capa_1" enable-background="new 0 0 484.444 484.444" height="512px" viewBox="0 0 484.444 484.444" width="512px"><g><path d="m242.09 0c-95.578 0-173.136 73.771-173.136 164.444 0 62.852 38.136 120.61 98.136 148.2v24.8h-21.554c-3.314 0-6 2.686-6 6s2.686 6 6 6h21.554v22h-21.554c-3.314 0-6 2.686-6 6s2.686 6 6 6h21.554v23h-21.554c-3.314 0-6 2.686-6 6s2.686 6 6 6h21.554v24.913c0 3.313 2.287 6.087 5.6 6.087h138.156c3.378-.022 6.136-2.71 6.244-6.087v-24.913h21.554c3.314 0 6-2.686 6-6s-2.686-6-6-6h-21.554v-23h21.554c3.314 0 6-2.686 6-6s-2.686-6-6-6h-21.554v-22h21.554c3.314 0 6-2.686 6-6s-2.686-6-6-6h-21.554v-24.774c28-13.045 52.564-33.078 69.981-58.126 18.491-26.407 28.412-57.863 28.419-90.1 0-90.673-77.822-164.444-173.4-164.444zm63 437.444h-126v-19h126zm0-31h-126v-23h126zm0-35h-126v-22h126zm72.008-123.751c-17.196 24.559-40.929 43.809-68.508 55.568-2.17.964-3.55 3.136-3.5 5.51v28.673h-126v-28.673c-.083-2.418-1.567-4.567-3.8-5.5-57.307-25-94.436-79.488-94.436-138.823 0-84.06 72.325-152.448 161.286-152.448s161.311 68.388 161.311 152.444c-.041 29.795-9.241 58.858-26.353 83.249z" data-original="#000000" class="active-path" data-old_color="#7cb5ea" fill="#7cb5ea"/><path d="m298.357 472.444h-112.534c-3.314 0-6 2.686-6 6s2.686 6 6 6h112.534c3.314 0 6-2.686 6-6s-2.686-6-6-6z" data-original="#000000" class="active-path" data-old_color="#7cb5ea" fill="#7cb5ea"/><path d="m242.09 40.544c-68.553 0-124.127 55.574-124.127 124.127s55.574 124.127 124.127 124.127 124.127-55.574 124.127-124.127c0-.002 0-.003 0-.005-.08-68.519-55.608-124.044-124.127-124.122zm0 236.253c-61.926 0-112.127-50.201-112.127-112.127s50.201-112.127 112.127-112.127c61.924 0 112.125 50.199 112.127 112.123-.07 61.897-50.23 112.057-112.127 112.127z" data-original="#000000" class="active-path" data-old_color="#7cb5ea" fill="#7cb5ea"/><path d="m218.5 120.926c-2.048-2.605-5.82-3.057-8.425-1.009 0 0-.001 0-.001.001l-50.353 39.593c-2.605 2.048-3.056 5.82-1.008 8.425.295.375.633.713 1.008 1.008l50.353 39.594c2.605 2.048 6.378 1.597 8.426-1.008s1.597-6.378-1.008-8.426l-44.355-34.876 44.353-34.877c2.605-2.048 3.058-5.82 1.01-8.425z" data-original="#000000" class="active-path" data-old_color="#7cb5ea" fill="#7cb5ea"/><path d="m264.149 120.926c-2.048 2.605-1.597 6.377 1.007 8.425l44.355 34.877-44.355 34.877c-2.622 2.026-3.105 5.794-1.079 8.416s5.794 3.105 8.416 1.079c.027-.021.054-.042.081-.063l50.353-39.593c2.605-2.048 3.056-5.82 1.008-8.425-.295-.375-.633-.713-1.008-1.008l-50.353-39.593c-2.605-2.048-6.377-1.597-8.425 1.008z" data-original="#000000" class="active-path" data-old_color="#7cb5ea" fill="#7cb5ea"/><path d="m251.158 99.567c-3.275-.492-6.331 1.761-6.83 5.035l-17.873 118.094c-.496 3.276 1.758 6.335 5.034 6.831h.001c.3.045.603.068.906.068 2.963-.004 5.48-2.17 5.924-5.1l17.87-118.097c.496-3.276-1.756-6.334-5.032-6.831z" data-original="#000000" class="active-path" data-old_color="#7cb5ea" fill="#7cb5ea"/></g> </svg>
