<?xml version="1.0" encoding="UTF-8" standalone="no"?>
<svg
   xmlns:dc="http://purl.org/dc/elements/1.1/"
   xmlns:cc="http://creativecommons.org/ns#"
   xmlns:rdf="http://www.w3.org/1999/02/22-rdf-syntax-ns#"
   xmlns:svg="http://www.w3.org/2000/svg"
   xmlns="http://www.w3.org/2000/svg"
   xmlns:sodipodi="http://sodipodi.sourceforge.net/DTD/sodipodi-0.dtd"
   xmlns:inkscape="http://www.inkscape.org/namespaces/inkscape"
   id="svg17"
   version="1.1"
   viewBox="0 0 28 30"
   height="30px"
   width="28px"
   sodipodi:docname="medical.svg"
   inkscape:version="0.92.3 (unknown)">
  <sodipodi:namedview
     pagecolor="#ffffff"
     bordercolor="#666666"
     borderopacity="1"
     objecttolerance="10"
     gridtolerance="10"
     guidetolerance="10"
     inkscape:pageopacity="0"
     inkscape:pageshadow="2"
     inkscape:window-width="1315"
     inkscape:window-height="744"
     id="namedview21"
     showgrid="false"
     inkscape:zoom="7.8666667"
     inkscape:cx="14"
     inkscape:cy="15"
     inkscape:window-x="51"
     inkscape:window-y="336"
     inkscape:window-maximized="1"
     inkscape:current-layer="Icon/04" />
  <metadata
     id="metadata21">
    <rdf:RDF>
      <cc:Work
         rdf:about="">
        <dc:format>image/svg+xml</dc:format>
        <dc:type
           rdf:resource="http://purl.org/dc/dcmitype/StillImage" />
        <dc:title>Group 4</dc:title>
      </cc:Work>
    </rdf:RDF>
  </metadata>
  <!-- Generator: Sketch 48.2 (47327) - http://www.bohemiancoding.com/sketch -->
  <title
     id="title2">Group 4</title>
  <desc
     id="desc4">Created with Sketch.</desc>
  <defs
     id="defs6" />
  <g
     style="fill-rule:nonzero;fill:#000000;fill-opacity:0;"
     transform="translate(-214.000000, -2512.000000)"
     fill-rule="evenodd"
     fill="none"
     stroke-width="1"
     stroke="none"
     id="Features-Page">
    <g
       style="fill-rule:nonzero;fill:#000000;fill-opacity:0;"
       transform="translate(215.000000, 2224.000000)"
       id="KPI">
      <g
         style="fill-rule:nonzero;fill:#000000;fill-opacity:0;"
         transform="translate(0.000000, 289.000000)"
         id="Group-4">
        <g
           style="fill-rule:nonzero;fill:#000000;fill-opacity:0;"
           id="Icon/04">
          <g
             style="fill-rule:nonzero;fill:#79b679;fill-opacity:0"
             id="Page-1">
            <path
               fill="#E5E7FD"
               style="fill-rule:nonzero;fill:#79b679;fill-opacity:0"
               id="Fill-1"
               d="M3.56397391,24.5380435 L3.56397391,11.9660435 C3.56397391,10.5964783 3.96693043,9.28291304 4.93536522,8.31447826 L11.3467565,1.83247826 C11.6115391,1.56769565 11.8793652,1.36986957 12.195887,1.20795652 C10.9693652,0.551782609 9.39710435,0.725869565 8.36232174,1.76065217 L2.43606087,7.78613043 C1.5358,8.6863913 1.1291913,9.90743478 1.1291913,11.1808261 L1.1291913,22.8677826 C1.1291913,24.9708261 2.5164087,26.753087 4.39910435,27.4025652 C3.85127826,26.5826522 3.56397391,25.5977826 3.56397391,24.5380435" />
            <path
               stroke="#8349df"
               stroke-width="2"
               stroke-linecap="round"
               stroke-linejoin="round"
               style="fill-rule:nonzero;fill:#79b679;fill-opacity:0"
               id="Stroke-3"
               d="M12.9458609,27.1617043 L5.10525217,27.1617043 C2.45377391,27.1617043 0.304469565,25.0124 0.304469565,22.3609217 L0.304469565,10.6739652 C0.304469565,9.40118261 0.810295652,8.17953043 1.71055652,7.27926957 L7.73603478,1.2537913 C9.00212174,-0.0122956522 11.0552522,-0.0122956522 12.3213391,1.2537913 L18.3468174,7.27926957 C19.2470783,8.17953043 19.7529043,9.40118261 19.7529043,10.6739652 L19.7529043,11.6028348" />
            <path
               stroke="#8349df"
               stroke-width="2"
               stroke-linecap="round"
               stroke-linejoin="round"
               style="fill-rule:nonzero;fill:#79b679;fill-opacity:0;stroke:#000000;stroke-opacity:0.8509804"
               id="Stroke-5"
               d="M10.0286261,6.74075652 C11.1029739,6.74075652 11.9734087,7.6118 11.9734087,8.68553913 C11.9734087,9.75988696 11.1029739,10.6303217 10.0286261,10.6303217 C8.95427826,10.6303217 8.08384348,9.75988696 8.08384348,8.68553913 C8.08384348,7.6118 8.95427826,6.74075652 10.0286261,6.74075652 Z" />
            <path
               stroke="#ec6ad5"
               stroke-width="2"
               stroke-linecap="round"
               stroke-linejoin="round"
               style="fill-rule:nonzero;fill:#79b679;fill-opacity:0"
               id="Stroke-7"
               d="M24.6548522,16.4572435 C23.2353739,14.9878522 20.8675478,15.228287 19.7530261,16.966113 C18.637287,15.2264609 16.2688522,14.9896783 14.8505913,16.4572435 C13.6082435,17.7440261 13.6082435,19.8288087 14.8505913,21.1149826 L19.7518087,26.1890696 L24.6548522,21.1149826 C25.8984174,19.8288087 25.8984174,17.7440261 24.6548522,16.4572435 Z" />
          </g>
        </g>
      </g>
    </g>
  </g>
  <path
     id="path2387"
     d="m 20.384869,28.065218 c -0.116924,-0.04752 -1.42615,-1.344879 -2.909391,-2.883015 -3.172372,-3.289779 -3.472114,-3.755749 -3.470543,-5.395198 0.0017,-1.737772 0.924521,-3.171546 2.505923,-3.893271 0.661707,-0.301992 0.859573,-0.333437 1.790629,-0.284569 0.885371,0.04647 1.158613,0.118088 1.772614,0.464608 l 0.725895,0.40967 0.367027,-0.261346 c 1.428082,-1.016884 3.728619,-0.808877 5.028725,0.454681 0.894033,0.8689 1.264608,1.778109 1.265438,3.104765 0.0011,1.746233 -0.262517,2.154623 -3.590407,5.56232 -2.743262,2.809049 -2.923655,2.949877 -3.48591,2.721355 z m 2.674503,-4.63308 c 1.205993,-1.242198 2.27519,-2.455932 2.375993,-2.697189 0.363432,-0.869814 0.19435,-1.865412 -0.428622,-2.52384 -0.488621,-0.516431 -0.94391,-0.719584 -1.612675,-0.719584 -0.722007,0 -1.132056,0.205139 -1.753005,0.87699 -0.66433,0.718788 -1.184013,0.727145 -1.745802,0.02807 -1.065119,-1.325399 -3.040616,-1.153208 -3.753516,0.327169 -0.275547,0.57219 -0.297085,1.61971 -0.04318,2.100334 0.214236,0.405541 4.558378,4.956052 4.681251,4.903635 0.04777,-0.02038 1.073567,-1.053391 2.27956,-2.295588 z"
     style="opacity:1;fill:#7cb5ea;fill-opacity:1;fill-rule:nonzero;stroke:#000000;stroke-width:0.12711865;stroke-opacity:1" />
  <path
     id="path2643"
     d=""
     style="opacity:1;fill:#000000;fill-opacity:0;fill-rule:nonzero;stroke-width:0.12711865" />
  <path
     id="path2645"
     d="M 4.3595699,28.812475 C 2.3804864,28.179812 0.84280664,26.431663 0.45178453,24.369811 0.37448076,23.96219 0.32292609,21.187731 0.32424114,17.505955 0.32664972,10.762573 0.37357976,10.203262 1.0430722,8.9389328 1.2915073,8.4697661 2.4381347,7.2253309 4.9578013,4.6902761 8.7917371,0.8329255 9.1401881,0.56534742 10.560548,0.38788513 c 0.795491,-0.09939 2.002607,0.18133486 2.693047,0.62629057 0.730122,0.4705294 7.328892,7.1816551 7.702139,7.8332819 0.466411,0.8142788 0.722232,1.9236184 0.722232,3.1318884 0,0.977063 -0.02165,1.061602 -0.33494,1.308038 -0.41417,0.325786 -0.81895,0.335636 -1.197456,0.02914 C 19.893084,13.112074 19.845059,12.92164 19.768851,11.82273 19.704881,10.900337 19.604811,10.410201 19.394937,9.9913736 19.206054,9.614437 17.954697,8.2601111 15.724007,6.0183808 12.049612,2.3257989 11.775447,2.1214497 10.721742,2.289944 10.426792,2.3371084 10.011217,2.4837084 9.7982428,2.6157215 9.5852686,2.7477347 7.9485928,4.3325884 6.1611856,6.1376185 3.7894577,8.5327304 2.82773,9.5912286 2.6018636,10.055085 l -0.3094907,0.635593 v 6.800847 c 0,6.678478 0.00489,6.81142 0.2716942,7.388441 0.3697193,0.799593 1.0466123,1.518819 1.7838436,1.895404 0.6119693,0.3126 0.6290432,0.313819 5.2822367,0.377172 4.5952616,0.06257 4.6726426,0.06792 4.9470336,0.342514 0.342319,0.342569 0.364504,0.957755 0.04719,1.308388 -0.22425,0.247793 -0.378543,0.255662 -4.8834746,0.249042 -4.1500758,-0.0061 -4.730595,-0.03199 -5.3813215,-0.240011 z"
     style="opacity:1;fill:#000000;fill-opacity:0;fill-rule:nonzero;stroke-width:0.12711865" />
  <path
     id="path2647"
     d="M 4.3595699,28.812475 C 2.3804864,28.179812 0.84280664,26.431663 0.45178453,24.369811 0.37448076,23.96219 0.32292609,21.187731 0.32424114,17.505955 0.32664972,10.762573 0.37357976,10.203262 1.0430722,8.9389328 1.2915073,8.4697661 2.4381347,7.2253309 4.9578013,4.6902761 8.7917371,0.8329255 9.1401881,0.56534742 10.560548,0.38788513 c 0.795491,-0.09939 2.002607,0.18133486 2.693047,0.62629057 0.730122,0.4705294 7.328892,7.1816551 7.702139,7.8332819 0.466411,0.8142788 0.722232,1.9236184 0.722232,3.1318884 0,0.977063 -0.02165,1.061602 -0.33494,1.308038 -0.41417,0.325786 -0.81895,0.335636 -1.197456,0.02914 C 19.893084,13.112074 19.845059,12.92164 19.768851,11.82273 19.704881,10.900337 19.604811,10.410201 19.394937,9.9913736 19.206054,9.614437 17.954697,8.2601111 15.724007,6.0183808 12.049612,2.3257989 11.775447,2.1214497 10.721742,2.289944 10.426792,2.3371084 10.011217,2.4837084 9.7982428,2.6157215 9.5852686,2.7477347 7.9485928,4.3325884 6.1611856,6.1376185 3.7894577,8.5327304 2.82773,9.5912286 2.6018636,10.055085 l -0.3094907,0.635593 v 6.800847 c 0,6.678478 0.00489,6.81142 0.2716942,7.388441 0.3697193,0.799593 1.0466123,1.518819 1.7838436,1.895404 0.6119693,0.3126 0.6290432,0.313819 5.2822367,0.377172 4.5952616,0.06257 4.6726426,0.06792 4.9470336,0.342514 0.342319,0.342569 0.364504,0.957755 0.04719,1.308388 -0.22425,0.247793 -0.378543,0.255662 -4.8834746,0.249042 -4.1500758,-0.0061 -4.730595,-0.03199 -5.3813215,-0.240011 z"
     style="opacity:1;fill:#000000;fill-opacity:0;fill-rule:nonzero;stroke-width:0.12711865" />
  <path
     id="path2649"
     d="M 4.3595699,28.812475 C 2.3804864,28.179812 0.84280664,26.431663 0.45178453,24.369811 0.37448076,23.96219 0.32292609,21.187731 0.32424114,17.505955 0.32664972,10.762573 0.37357976,10.203262 1.0430722,8.9389328 1.2915073,8.4697661 2.4381347,7.2253309 4.9578013,4.6902761 8.7917371,0.8329255 9.1401881,0.56534742 10.560548,0.38788513 c 0.795491,-0.09939 2.002607,0.18133486 2.693047,0.62629057 0.730122,0.4705294 7.328892,7.1816551 7.702139,7.8332819 0.466411,0.8142788 0.722232,1.9236184 0.722232,3.1318884 0,0.977063 -0.02165,1.061602 -0.33494,1.308038 -0.41417,0.325786 -0.81895,0.335636 -1.197456,0.02914 C 19.893084,13.112074 19.845059,12.92164 19.768851,11.82273 19.704881,10.900337 19.604811,10.410201 19.394937,9.9913736 19.206054,9.614437 17.954697,8.2601111 15.724007,6.0183808 12.049612,2.3257989 11.775447,2.1214497 10.721742,2.289944 10.426792,2.3371084 10.011217,2.4837084 9.7982428,2.6157215 9.5852686,2.7477347 7.9485928,4.3325884 6.1611856,6.1376185 3.7894577,8.5327304 2.82773,9.5912286 2.6018636,10.055085 l -0.3094907,0.635593 v 6.800847 c 0,6.678478 0.00489,6.81142 0.2716942,7.388441 0.3697193,0.799593 1.0466123,1.518819 1.7838436,1.895404 0.6119693,0.3126 0.6290432,0.313819 5.2822367,0.377172 4.5952616,0.06257 4.6726426,0.06792 4.9470336,0.342514 0.342319,0.342569 0.364504,0.957755 0.04719,1.308388 -0.22425,0.247793 -0.378543,0.255662 -4.8834746,0.249042 -4.1500758,-0.0061 -4.730595,-0.03199 -5.3813215,-0.240011 z"
     style="opacity:1;fill:#7cb5ea;fill-opacity:1;fill-rule:nonzero;stroke-width:0.127;stroke:#000000;stroke-opacity:1;stroke-miterlimit:4;stroke-dasharray:none" />
</svg>
